# xmcd
#
# Track frame offsets: 
#        150
#        5228
#        25427
#        39426
#        57660
#        78928
#        94677
#        116373
#        137632
#        159620
#        178756
#
# Disc length: 2714 seconds
#
# Revision: 0
# Processed by: cddbd v1.5.2PL0 Copyright (c) Steve Scherf et al.
# Submitted via: ExactAudioCopyFreeDBPlugin 1.0
#
DISCID=8e0a980b
DTITLE=Lucero - Women and Work
DYEAR=2012
DGENRE=Country
TTITLE0=Downtown (Intro)
TTITLE1=On My Way Downtown
TTITLE2=Women and Work
TTITLE3=It May Be Too Late
TTITLE4=Juniper
TTITLE5=Who You Waiting On?
TTITLE6=I Can't Stand To Leave You
TTITLE7=When I Was Young
TTITLE8=Sometimes
TTITLE9=Like Lightning
TTITLE10=Go Easy
EXTD=
EXTT0=
EXTT1=
EXTT2=
EXTT3=
EXTT4=
EXTT5=
EXTT6=
EXTT7=
EXTT8=
EXTT9=
EXTT10=
PLAYORDER=
